<?xml version="1.0" encoding="iso-8859-1"?>
<!-- Generator: Adobe Illustrator 19.0.0, SVG Export Plug-In . SVG Version: 6.00 Build 0)  -->
<svg version="1.1" id="Capa_1" xmlns="http://www.w3.org/2000/svg" xmlns:xlink="http://www.w3.org/1999/xlink" x="0px" y="0px"
	 viewBox="0 0 512 512" style="enable-background:new 0 0 512 512;" xml:space="preserve">
<path style="fill:#FF8087;" d="M268.295,482.568c47.985-27.365,221.05-135.274,242.019-279.022
	c13.086-89.705-51.5-174.521-142.112-177.312c-38.707-1.192-74.144,12.464-101.227,35.627c-6.375,5.452-15.575,5.452-21.95,0
	c-27.083-23.163-62.52-36.819-101.227-35.627C53.186,29.025-11.4,113.841,1.686,203.546
	c20.97,143.748,194.034,251.656,242.019,279.022C251.351,486.928,260.649,486.928,268.295,482.568z"/>
<circle style="fill:#FFE1A0;" cx="256" cy="249.48" r="124.06"/>
<path style="fill:#E3AA75;" d="M289.084,274.291h-66.168c-4.568,0-8.271,3.703-8.271,8.271l0,0c0,22.84,18.515,41.355,41.355,41.355
	l0,0c22.84,0,41.355-18.515,41.355-41.355l0,0C297.355,277.994,293.652,274.291,289.084,274.291z"/>
<g>
	<path style="fill:#6E5A64;" d="M214.653,241.207c-2.657,0-5.258-1.276-6.857-3.639c-3.861-5.719-15.524-5.719-19.385,0
		c-2.56,3.776-7.706,4.774-11.478,2.221c-3.788-2.56-4.782-7.702-2.221-11.486c5.04-7.459,13.788-11.91,23.391-11.91
		s18.351,4.45,23.391,11.91c2.56,3.784,1.567,8.925-2.221,11.486C217.86,240.747,216.244,241.207,214.653,241.207z"/>
	<path style="fill:#6E5A64;" d="M330.447,241.207c-2.657,0-5.258-1.276-6.857-3.639c-3.861-5.719-15.524-5.719-19.385,0
		c-2.56,3.776-7.706,4.774-11.478,2.221c-3.788-2.56-4.782-7.702-2.221-11.486c5.04-7.459,13.788-11.91,23.391-11.91
		c9.604,0,18.351,4.45,23.391,11.91c2.56,3.784,1.567,8.925-2.221,11.486C333.653,240.747,332.038,241.207,330.447,241.207z"/>
</g>
<path style="fill:#E6646E;" d="M511.856,174.938c-0.193,5.265-0.66,10.562-1.541,15.887
	C489.345,317.562,316.28,412.7,268.295,436.827c-7.646,3.844-16.944,3.844-24.59,0C195.72,412.7,22.655,317.562,1.686,190.825
	c-0.881-5.325-1.348-10.621-1.541-15.887c-0.321,9.419,0.137,18.981,1.541,28.608c20.97,143.747,194.034,251.657,242.02,279.022
	c7.645,4.36,16.944,4.36,24.59,0c47.985-27.365,221.05-135.274,242.02-279.022C511.719,193.919,512.177,184.358,511.856,174.938z"/>
<path style="fill:#D29B6E;" d="M296.521,290.833c0.543-2.673,0.833-5.438,0.833-8.271c0-4.568-3.703-8.271-8.271-8.271h-66.168
	c-4.568,0-8.271,3.703-8.271,8.271c0,2.833,0.291,5.598,0.833,8.271H296.521z"/>
<path style="fill:#F5B97D;" d="M256,125.414c-12.635,0-24.817,1.915-36.303,5.426c-3.118,5.81-5.052,12.345-5.052,19.387
	c0,22.802,18.553,41.355,41.355,41.355c18.246,0,33.084-14.842,33.084-33.084c0-4.568-3.699-8.271-8.271-8.271
	s-8.271,3.703-8.271,8.271c0,9.123-7.423,16.542-16.542,16.542c-13.683,0-24.813-11.13-24.813-24.813
	C231.187,136.544,242.317,125.414,256,125.414z"/>
<path style="fill:#F7D291;" d="M256,357.001c-65.727,0-119.372-51.149-123.647-115.794c-0.182,2.746-0.417,5.479-0.417,8.271
	c0,68.519,55.545,124.064,124.064,124.064s124.064-55.546,124.064-124.064c0-2.792-0.236-5.525-0.417-8.271
	C375.372,305.851,321.727,357.001,256,357.001z"/>
<g>
</g>
<g>
</g>
<g>
</g>
<g>
</g>
<g>
</g>
<g>
</g>
<g>
</g>
<g>
</g>
<g>
</g>
<g>
</g>
<g>
</g>
<g>
</g>
<g>
</g>
<g>
</g>
<g>
</g>
</svg>
